<?xml version="1.0" encoding="iso-8859-1"?>
<!-- Generator: Adobe Illustrator 19.0.0, SVG Export Plug-In . SVG Version: 6.00 Build 0)  -->
<svg fill="#00ff8c" version="1.1" id="Capa_1" xmlns="http://www.w3.org/2000/svg" xmlns:xlink="http://www.w3.org/1999/xlink" x="0px" y="0px"
	 viewBox="0 0 512.001 512.001" style="enable-background:new 0 0 512.001 512.001;" xml:space="preserve">
<g>
	<g>
		<path d="M125.271,387.137c-0.555-0.533-1.152-1.003-1.792-1.408c-20.459-19.904-40.192-26.795-58.667-20.459
			C16.236,381.91,1.601,487.958,0.087,499.99c-0.384,3.051,1.408,6.059,3.435,8.363c2.027,2.283,5.781,3.563,8.853,3.563
			c12.032-1.493,118.08-16.149,134.741-64.725C153.601,428.31,146.241,408.107,125.271,387.137z"/>
	</g>
</g>
<g>
	<g>
		<path d="M501.335,0.001c-126.976,0-244.757,103.744-322.112,192.128C12.417,193.515,0.129,349.718,0.023,351.318
			c-0.235,3.605,1.365,7.083,4.288,9.259c1.877,1.387,4.096,2.091,6.357,2.091c1.259,0,2.539-0.235,3.755-0.683l78.891-29.589
			l86.293,86.293l-29.589,78.891c-1.28,3.392-0.725,7.211,1.429,10.112c2.005,2.731,5.184,4.309,8.555,4.309
			c0.235,0,0.448,0,0.704-0.021c1.579-0.107,157.781-12.395,159.168-179.179c88.384-77.355,192.128-195.157,192.128-322.133
			C512.001,4.779,507.223,0.001,501.335,0.001z M341.335,234.667c-35.285,0-64-28.715-64-64s28.715-64,64-64
			c35.285,0,64,28.715,64,64S376.62,234.667,341.335,234.667z"/>
	</g>
</g>
<g>
	<g>
		<circle cx="341.335" cy="170.667" r="42.667"/>
	</g>
</g>
<g>
</g>
<g>
</g>
<g>
</g>
<g>
</g>
<g>
</g>
<g>
</g>
<g>
</g>
<g>
</g>
<g>
</g>
<g>
</g>
<g>
</g>
<g>
</g>
<g>
</g>
<g>
</g>
<g>
</g>
</svg>
